<svg xmlns="http://www.w3.org/2000/svg" xmlns:xlink="http://www.w3.org/1999/xlink" width="299" zoomAndPan="magnify" viewBox="0 0 224.25 57.749997" height="77" preserveAspectRatio="xMidYMid meet" version="1.0"><defs><g/><clipPath id="43f9eacb88"><path d="M 0.109375 18.144531 L 15.046875 18.144531 L 15.046875 39.054688 L 0.109375 39.054688 Z M 0.109375 18.144531 " clip-rule="nonzero"/></clipPath></defs><path stroke-linecap="round" transform="matrix(0, 0.746767, -0.746767, 0, 18.664885, 17.592058)" fill="none" stroke-linejoin="miter" d="M 0.4992 0.498035 L 28.677954 0.498035 " stroke="#000000" stroke-width="1" stroke-opacity="1" stroke-miterlimit="4"/><g clip-path="url(#43f9eacb88)"><path fill="#000000" d="M 2.628906 31.691406 L 1.914062 30.785156 C 0.109375 28.492188 0.878906 25.117188 3.5 23.832031 L 15.046875 18.15625 L 15.046875 20.492188 C 15.046875 22.28125 14.027344 23.910156 12.421875 24.691406 L 4.742188 28.433594 C 4.183594 28.707031 3.695312 29.105469 3.324219 29.605469 C 2.953125 30.109375 2.636719 30.796875 2.660156 31.664062 C 2.914062 31.464844 3.195312 31.285156 3.496094 31.136719 L 15.046875 25.460938 L 15.046875 27.796875 C 15.046875 29.585938 14.023438 31.214844 12.417969 32 L 4.742188 35.738281 C 4.183594 36.011719 3.695312 36.410156 3.324219 36.910156 C 2.945312 37.425781 2.617188 38.140625 2.664062 39.042969 L 1.914062 38.089844 C 0.328125 36.074219 0.730469 33.226562 2.628906 31.691406 Z M 10.128906 36.484375 L 15.042969 39.042969 L 15.039062 32.648438 L 10.136719 35.117188 C 9.578125 35.398438 9.574219 36.195312 10.128906 36.484375 Z M 10.128906 36.484375 " fill-opacity="1" fill-rule="nonzero"/></g><g fill="#000000" fill-opacity="1"><g transform="translate(21.653303, 37.073475)"><g><path d="M 7.71875 0.171875 C 6.53125 0.171875 5.460938 -0.03125 4.515625 -0.4375 C 3.566406 -0.851562 2.820312 -1.441406 2.28125 -2.203125 C 1.738281 -2.960938 1.46875 -3.851562 1.46875 -4.875 L 4.5625 -4.875 C 4.632812 -4.113281 4.9375 -3.488281 5.46875 -3 C 6 -2.507812 6.75 -2.265625 7.71875 -2.265625 C 8.71875 -2.265625 9.492188 -2.503906 10.046875 -2.984375 C 10.609375 -3.460938 10.890625 -4.082031 10.890625 -4.84375 C 10.890625 -5.4375 10.710938 -5.914062 10.359375 -6.28125 C 10.015625 -6.65625 9.582031 -6.941406 9.0625 -7.140625 C 8.550781 -7.347656 7.835938 -7.570312 6.921875 -7.8125 C 5.773438 -8.113281 4.84375 -8.421875 4.125 -8.734375 C 3.40625 -9.054688 2.789062 -9.546875 2.28125 -10.203125 C 1.769531 -10.859375 1.515625 -11.738281 1.515625 -12.84375 C 1.515625 -13.851562 1.769531 -14.738281 2.28125 -15.5 C 2.789062 -16.257812 3.5 -16.84375 4.40625 -17.25 C 5.320312 -17.65625 6.382812 -17.859375 7.59375 -17.859375 C 9.300781 -17.859375 10.695312 -17.429688 11.78125 -16.578125 C 12.875 -15.722656 13.476562 -14.550781 13.59375 -13.0625 L 10.40625 -13.0625 C 10.351562 -13.707031 10.046875 -14.257812 9.484375 -14.71875 C 8.929688 -15.175781 8.195312 -15.40625 7.28125 -15.40625 C 6.457031 -15.40625 5.78125 -15.191406 5.25 -14.765625 C 4.726562 -14.347656 4.46875 -13.738281 4.46875 -12.9375 C 4.46875 -12.394531 4.628906 -11.953125 4.953125 -11.609375 C 5.285156 -11.265625 5.707031 -10.988281 6.21875 -10.78125 C 6.726562 -10.582031 7.421875 -10.363281 8.296875 -10.125 C 9.460938 -9.800781 10.410156 -9.476562 11.140625 -9.15625 C 11.878906 -8.832031 12.503906 -8.335938 13.015625 -7.671875 C 13.535156 -7.003906 13.796875 -6.113281 13.796875 -5 C 13.796875 -4.101562 13.554688 -3.253906 13.078125 -2.453125 C 12.597656 -1.660156 11.894531 -1.023438 10.96875 -0.546875 C 10.050781 -0.0664062 8.96875 0.171875 7.71875 0.171875 Z M 7.71875 0.171875 "/></g></g></g><g fill="#000000" fill-opacity="1"><g transform="translate(36.974792, 37.073475)"><g><path d="M 9.953125 0.171875 C 8.304688 0.171875 6.789062 -0.207031 5.40625 -0.96875 C 4.03125 -1.738281 2.941406 -2.8125 2.140625 -4.1875 C 1.335938 -5.570312 0.9375 -7.128906 0.9375 -8.859375 C 0.9375 -10.578125 1.335938 -12.125 2.140625 -13.5 C 2.941406 -14.875 4.03125 -15.941406 5.40625 -16.703125 C 6.789062 -17.472656 8.304688 -17.859375 9.953125 -17.859375 C 11.609375 -17.859375 13.125 -17.472656 14.5 -16.703125 C 15.875 -15.941406 16.957031 -14.875 17.75 -13.5 C 18.550781 -12.125 18.953125 -10.578125 18.953125 -8.859375 C 18.953125 -7.128906 18.550781 -5.570312 17.75 -4.1875 C 16.957031 -2.8125 15.875 -1.738281 14.5 -0.96875 C 13.125 -0.207031 11.609375 0.171875 9.953125 0.171875 Z M 9.953125 -2.328125 C 11.117188 -2.328125 12.15625 -2.59375 13.0625 -3.125 C 13.976562 -3.664062 14.691406 -4.429688 15.203125 -5.421875 C 15.722656 -6.410156 15.984375 -7.554688 15.984375 -8.859375 C 15.984375 -10.160156 15.722656 -11.300781 15.203125 -12.28125 C 14.691406 -13.257812 13.976562 -14.007812 13.0625 -14.53125 C 12.15625 -15.0625 11.117188 -15.328125 9.953125 -15.328125 C 8.785156 -15.328125 7.742188 -15.0625 6.828125 -14.53125 C 5.910156 -14.007812 5.191406 -13.257812 4.671875 -12.28125 C 4.160156 -11.300781 3.90625 -10.160156 3.90625 -8.859375 C 3.90625 -7.554688 4.160156 -6.410156 4.671875 -5.421875 C 5.191406 -4.429688 5.910156 -3.664062 6.828125 -3.125 C 7.742188 -2.59375 8.785156 -2.328125 9.953125 -2.328125 Z M 9.953125 -2.328125 "/></g></g></g><g fill="#000000" fill-opacity="1"><g transform="translate(56.862288, 37.073475)"><g><path d="M 0.9375 -8.859375 C 0.9375 -10.578125 1.335938 -12.125 2.140625 -13.5 C 2.941406 -14.875 4.03125 -15.941406 5.40625 -16.703125 C 6.789062 -17.472656 8.304688 -17.859375 9.953125 -17.859375 C 11.828125 -17.859375 13.492188 -17.394531 14.953125 -16.46875 C 16.421875 -15.550781 17.484375 -14.25 18.140625 -12.5625 L 14.671875 -12.5625 C 14.210938 -13.488281 13.578125 -14.179688 12.765625 -14.640625 C 11.953125 -15.097656 11.015625 -15.328125 9.953125 -15.328125 C 8.785156 -15.328125 7.742188 -15.0625 6.828125 -14.53125 C 5.910156 -14.007812 5.191406 -13.257812 4.671875 -12.28125 C 4.160156 -11.300781 3.90625 -10.160156 3.90625 -8.859375 C 3.90625 -7.554688 4.160156 -6.410156 4.671875 -5.421875 C 5.191406 -4.441406 5.910156 -3.6875 6.828125 -3.15625 C 7.742188 -2.625 8.785156 -2.359375 9.953125 -2.359375 C 11.015625 -2.359375 11.953125 -2.585938 12.765625 -3.046875 C 13.578125 -3.503906 14.210938 -4.195312 14.671875 -5.125 L 18.140625 -5.125 C 17.484375 -3.4375 16.421875 -2.132812 14.953125 -1.21875 C 13.492188 -0.300781 11.828125 0.15625 9.953125 0.15625 C 8.285156 0.15625 6.765625 -0.226562 5.390625 -1 C 4.023438 -1.769531 2.941406 -2.835938 2.140625 -4.203125 C 1.335938 -5.578125 0.9375 -7.128906 0.9375 -8.859375 Z M 0.9375 -8.859375 "/></g></g></g><g fill="#000000" fill-opacity="1"><g transform="translate(76.470749, 37.073475)"><g><path d="M 4.796875 -17.640625 L 4.796875 0 L 1.90625 0 L 1.90625 -17.640625 Z M 4.796875 -17.640625 "/></g></g></g><g fill="#000000" fill-opacity="1"><g transform="translate(83.167553, 37.073475)"><g><path d="M 12.53125 -3.609375 L 5.15625 -3.609375 L 3.875 0 L 0.859375 0 L 7.1875 -17.65625 L 10.53125 -17.65625 L 16.84375 0 L 13.796875 0 Z M 11.71875 -5.96875 L 8.859375 -14.15625 L 5.96875 -5.96875 Z M 11.71875 -5.96875 "/></g></g></g><g fill="#000000" fill-opacity="1"><g transform="translate(100.848146, 37.073475)"><g><path d="M 4.796875 -2.328125 L 10.765625 -2.328125 L 10.765625 0 L 1.90625 0 L 1.90625 -17.640625 L 4.796875 -17.640625 Z M 4.796875 -2.328125 "/></g></g></g><g fill="#000000" fill-opacity="1"><g transform="translate(112.117145, 37.073475)"><g><path d="M 12.359375 -9.140625 C 13.390625 -8.921875 14.21875 -8.40625 14.84375 -7.59375 C 15.46875 -6.789062 15.78125 -5.875 15.78125 -4.84375 C 15.78125 -3.351562 15.257812 -2.171875 14.21875 -1.296875 C 13.175781 -0.429688 11.726562 0 9.875 0 L 1.578125 0 L 1.578125 -17.8125 L 9.59375 -17.8125 C 11.40625 -17.8125 12.820312 -17.394531 13.84375 -16.5625 C 14.863281 -15.738281 15.375 -14.613281 15.375 -13.1875 C 15.375 -12.144531 15.097656 -11.273438 14.546875 -10.578125 C 14.003906 -9.890625 13.273438 -9.410156 12.359375 -9.140625 Z M 5.90625 -10.609375 L 8.75 -10.609375 C 9.457031 -10.609375 10.003906 -10.765625 10.390625 -11.078125 C 10.773438 -11.390625 10.96875 -11.847656 10.96875 -12.453125 C 10.96875 -13.066406 10.773438 -13.535156 10.390625 -13.859375 C 10.003906 -14.179688 9.457031 -14.34375 8.75 -14.34375 L 5.90625 -14.34375 Z M 9.109375 -3.5 C 9.835938 -3.5 10.398438 -3.660156 10.796875 -3.984375 C 11.191406 -4.316406 11.390625 -4.800781 11.390625 -5.4375 C 11.390625 -6.0625 11.179688 -6.550781 10.765625 -6.90625 C 10.359375 -7.257812 9.789062 -7.4375 9.0625 -7.4375 L 5.90625 -7.4375 L 5.90625 -3.5 Z M 9.109375 -3.5 "/></g></g></g><g fill="#000000" fill-opacity="1"><g transform="translate(128.833798, 37.073475)"><g><path d="M 10.65625 0 L 6.953125 -6.71875 L 5.90625 -6.71875 L 5.90625 0 L 1.578125 0 L 1.578125 -17.8125 L 8.859375 -17.8125 C 10.265625 -17.8125 11.460938 -17.566406 12.453125 -17.078125 C 13.441406 -16.585938 14.179688 -15.914062 14.671875 -15.0625 C 15.160156 -14.207031 15.40625 -13.253906 15.40625 -12.203125 C 15.40625 -11.015625 15.066406 -9.957031 14.390625 -9.03125 C 13.722656 -8.101562 12.738281 -7.441406 11.4375 -7.046875 L 15.5625 0 Z M 5.90625 -9.796875 L 8.609375 -9.796875 C 9.398438 -9.796875 9.992188 -9.988281 10.390625 -10.375 C 10.785156 -10.769531 10.984375 -11.320312 10.984375 -12.03125 C 10.984375 -12.707031 10.785156 -13.238281 10.390625 -13.625 C 9.992188 -14.007812 9.398438 -14.203125 8.609375 -14.203125 L 5.90625 -14.203125 Z M 5.90625 -9.796875 "/></g></g></g><g fill="#000000" fill-opacity="1"><g transform="translate(145.372885, 37.073475)"><g><path d="M 5.90625 -17.8125 L 5.90625 0 L 1.578125 0 L 1.578125 -17.8125 Z M 5.90625 -17.8125 "/></g></g></g><g fill="#000000" fill-opacity="1"><g transform="translate(152.856065, 37.073475)"><g><path d="M 8.25 -17.8125 C 10.125 -17.8125 11.765625 -17.4375 13.171875 -16.6875 C 14.578125 -15.945312 15.660156 -14.90625 16.421875 -13.5625 C 17.191406 -12.21875 17.578125 -10.664062 17.578125 -8.90625 C 17.578125 -7.164062 17.191406 -5.617188 16.421875 -4.265625 C 15.660156 -2.910156 14.570312 -1.859375 13.15625 -1.109375 C 11.738281 -0.367188 10.101562 0 8.25 0 L 1.578125 0 L 1.578125 -17.8125 Z M 7.96875 -3.75 C 9.601562 -3.75 10.878906 -4.195312 11.796875 -5.09375 C 12.710938 -5.988281 13.171875 -7.257812 13.171875 -8.90625 C 13.171875 -10.550781 12.710938 -11.828125 11.796875 -12.734375 C 10.878906 -13.648438 9.601562 -14.109375 7.96875 -14.109375 L 5.90625 -14.109375 L 5.90625 -3.75 Z M 7.96875 -3.75 "/></g></g></g><g fill="#000000" fill-opacity="1"><g transform="translate(171.297657, 37.073475)"><g><path d="M 13.390625 -12.1875 C 13.078125 -12.769531 12.617188 -13.21875 12.015625 -13.53125 C 11.410156 -13.84375 10.703125 -14 9.890625 -14 C 8.492188 -14 7.367188 -13.535156 6.515625 -12.609375 C 5.671875 -11.691406 5.25 -10.46875 5.25 -8.9375 C 5.25 -7.289062 5.691406 -6.003906 6.578125 -5.078125 C 7.472656 -4.160156 8.695312 -3.703125 10.25 -3.703125 C 11.3125 -3.703125 12.210938 -3.972656 12.953125 -4.515625 C 13.691406 -5.054688 14.226562 -5.832031 14.5625 -6.84375 L 9.0625 -6.84375 L 9.0625 -10.046875 L 18.5 -10.046875 L 18.5 -6.015625 C 18.175781 -4.929688 17.628906 -3.921875 16.859375 -2.984375 C 16.085938 -2.054688 15.109375 -1.304688 13.921875 -0.734375 C 12.742188 -0.160156 11.410156 0.125 9.921875 0.125 C 8.160156 0.125 6.585938 -0.257812 5.203125 -1.03125 C 3.828125 -1.800781 2.753906 -2.867188 1.984375 -4.234375 C 1.222656 -5.609375 0.84375 -7.175781 0.84375 -8.9375 C 0.84375 -10.695312 1.222656 -12.265625 1.984375 -13.640625 C 2.753906 -15.015625 3.820312 -16.085938 5.1875 -16.859375 C 6.5625 -17.628906 8.128906 -18.015625 9.890625 -18.015625 C 12.023438 -18.015625 13.820312 -17.5 15.28125 -16.46875 C 16.75 -15.4375 17.71875 -14.007812 18.1875 -12.1875 Z M 13.390625 -12.1875 "/></g></g></g><g fill="#000000" fill-opacity="1"><g transform="translate(190.627083, 37.073475)"><g><path d="M 5.90625 -14.34375 L 5.90625 -10.734375 L 11.71875 -10.734375 L 11.71875 -7.390625 L 5.90625 -7.390625 L 5.90625 -3.46875 L 12.484375 -3.46875 L 12.484375 0 L 1.578125 0 L 1.578125 -17.8125 L 12.484375 -17.8125 L 12.484375 -14.34375 Z M 5.90625 -14.34375 "/></g></g></g></svg>